<svg xmlns="http://www.w3.org/2000/svg" viewBox="0 0 521.05 59.05"><title>logo</title><path d="M20.34,25.75H16.63L7.12,10.62V25.75H3.42V4.42h3.7l9.54,15.19V4.42h3.68Z" transform="translate(-2.57 -2.94)" fill="#060659"/><path d="M31.85,14.53,36.76,4.42h4.1L33.71,17.9v7.85H30V17.9L22.83,4.42h4.11Z" transform="translate(-2.57 -2.94)" fill="#060659"/><path d="M53.72,20.26a2.58,2.58,0,0,0-1-2.17,11.92,11.92,0,0,0-3.57-1.54,17,17,0,0,1-4.1-1.73,5.48,5.48,0,0,1-2.92-4.77A5.18,5.18,0,0,1,44.25,5.8,8.52,8.52,0,0,1,49.7,4.13a9.15,9.15,0,0,1,4,.82,6.47,6.47,0,0,1,2.74,2.34,5.94,5.94,0,0,1,1,3.36H53.72a3.34,3.34,0,0,0-1-2.62,4.33,4.33,0,0,0-3-.94,4.57,4.57,0,0,0-2.82.77,2.58,2.58,0,0,0-1,2.17,2.35,2.35,0,0,0,1.08,2,12.63,12.63,0,0,0,3.58,1.52,16.38,16.38,0,0,1,4,1.69,6.45,6.45,0,0,1,2.21,2.16,5.65,5.65,0,0,1,.7,2.87,5.09,5.09,0,0,1-2,4.24A8.86,8.86,0,0,1,49.83,26a10.41,10.41,0,0,1-4.25-.85,7.24,7.24,0,0,1-3-2.37,5.9,5.9,0,0,1-1.08-3.52h3.71a3.46,3.46,0,0,0,1.2,2.82,5.28,5.28,0,0,0,3.44,1,4.59,4.59,0,0,0,2.91-.78A2.52,2.52,0,0,0,53.72,20.26Z" transform="translate(-2.57 -2.94)" fill="#060659"/><path d="M80.44,16.71H71.85v9h-3.7V4.42H81.7v3H71.85v6.34h8.59Z" transform="translate(-2.57 -2.94)" fill="#060659"/><path d="M91.8,13.15A8.61,8.61,0,0,0,90.35,13a3.27,3.27,0,0,0-3.3,1.87V25.75H83.49V9.9h3.4L87,11.67a4,4,0,0,1,3.57-2.06,3.46,3.46,0,0,1,1.26.2Z" transform="translate(-2.57 -2.94)" fill="#060659"/><path d="M103.45,25.75a5.47,5.47,0,0,1-.41-1.48A5.54,5.54,0,0,1,98.88,26,5.6,5.6,0,0,1,95,24.68a4.37,4.37,0,0,1-1.5-3.37,4.5,4.5,0,0,1,1.88-3.89,9.13,9.13,0,0,1,5.38-1.35h2.18V15a2.81,2.81,0,0,0-.68-2,2.71,2.71,0,0,0-2.1-.74,3.11,3.11,0,0,0-2,.61,1.87,1.87,0,0,0-.78,1.54H93.81A3.94,3.94,0,0,1,94.68,12,5.7,5.7,0,0,1,97,10.25a8.23,8.23,0,0,1,3.32-.64,6.59,6.59,0,0,1,4.43,1.4,5,5,0,0,1,1.7,3.93v7.15a8.11,8.11,0,0,0,.6,3.41v.25Zm-3.91-2.56a4,4,0,0,0,2-.52,3.42,3.42,0,0,0,1.4-1.37v-3H101A5.26,5.26,0,0,0,98,19,2.24,2.24,0,0,0,97,21a2.06,2.06,0,0,0,.68,1.63A2.65,2.65,0,0,0,99.54,23.19Z" transform="translate(-2.57 -2.94)" fill="#060659"/><path d="M114.47,6.05V9.9h2.8v2.64h-2.8v8.84a2,2,0,0,0,.36,1.32,1.71,1.71,0,0,0,1.29.4,5.32,5.32,0,0,0,1.24-.15v2.76A8.92,8.92,0,0,1,115,26c-2.74,0-4.1-1.51-4.1-4.52v-9h-2.61V9.9h2.61V6.05Z" transform="translate(-2.57 -2.94)" fill="#060659"/><path d="M126.46,26A7.37,7.37,0,0,1,121,23.91a7.72,7.72,0,0,1-2.1-5.67V17.8a9.47,9.47,0,0,1,.91-4.24,6.94,6.94,0,0,1,2.57-2.91,6.78,6.78,0,0,1,3.7-1,6.25,6.25,0,0,1,5,2.06,8.79,8.79,0,0,1,1.76,5.85V19H122.46a4.71,4.71,0,0,0,1.31,3.11,3.93,3.93,0,0,0,2.89,1.14,4.84,4.84,0,0,0,4-2l1.91,1.83A6.34,6.34,0,0,1,130,25.26,8,8,0,0,1,126.46,26ZM126,12.46a3,3,0,0,0-2.36,1,5.17,5.17,0,0,0-1.15,2.86h6.78v-.27a4.37,4.37,0,0,0-1-2.7A3,3,0,0,0,126,12.46Z" transform="translate(-2.57 -2.94)" fill="#060659"/><path d="M143.9,13.15a8.61,8.61,0,0,0-1.45-.11,3.27,3.27,0,0,0-3.3,1.87V25.75h-3.56V9.9H139l.09,1.77a4,4,0,0,1,3.57-2.06,3.46,3.46,0,0,1,1.26.2Z" transform="translate(-2.57 -2.94)" fill="#060659"/><path d="M149.35,9.9l.11,1.83a5.71,5.71,0,0,1,4.61-2.12q5,0,5,5.67V25.75h-3.56V15.48a3.28,3.28,0,0,0-.65-2.23,2.73,2.73,0,0,0-2.13-.73,3.42,3.42,0,0,0-3.21,2V25.75H146V9.9Z" transform="translate(-2.57 -2.94)" fill="#060659"/><path d="M172,25.75a5.47,5.47,0,0,1-.41-1.48A5.54,5.54,0,0,1,167.38,26a5.6,5.6,0,0,1-3.9-1.36A4.38,4.38,0,0,1,162,21.31a4.5,4.5,0,0,1,1.89-3.89,9.13,9.13,0,0,1,5.38-1.35h2.18V15a2.77,2.77,0,0,0-.69-2,2.69,2.69,0,0,0-2.09-.74,3.09,3.09,0,0,0-2,.61,1.87,1.87,0,0,0-.78,1.54h-3.56a4,4,0,0,1,.86-2.44,5.73,5.73,0,0,1,2.36-1.78,8.21,8.21,0,0,1,3.31-.64,6.6,6.6,0,0,1,4.44,1.4,5,5,0,0,1,1.7,3.93v7.15a8.11,8.11,0,0,0,.6,3.41v.25ZM168,23.19a4,4,0,0,0,2-.52,3.42,3.42,0,0,0,1.4-1.37v-3H169.5a5.21,5.21,0,0,0-3,.69,2.25,2.25,0,0,0-1,1.95,2.1,2.1,0,0,0,.68,1.63A2.69,2.69,0,0,0,168,23.19Z" transform="translate(-2.57 -2.94)" fill="#060659"/><path d="M182.23,25.75h-3.56V3.25h3.56Z" transform="translate(-2.57 -2.94)" fill="#060659"/><path d="M210.94,15.64a13.1,13.1,0,0,1-1.08,5.5,8.23,8.23,0,0,1-3.1,3.64,9.14,9.14,0,0,1-9.26,0,8.39,8.39,0,0,1-3.13-3.61,12.69,12.69,0,0,1-1.12-5.41v-1.2a13.09,13.09,0,0,1,1.1-5.51,8.32,8.32,0,0,1,3.12-3.65,8.49,8.49,0,0,1,4.63-1.27,8.64,8.64,0,0,1,4.62,1.25A8.26,8.26,0,0,1,209.83,9a13,13,0,0,1,1.11,5.48Zm-3.7-1.11a9.38,9.38,0,0,0-1.34-5.44,4.74,4.74,0,0,0-7.56,0A9.08,9.08,0,0,0,197,14.41v1.23a9.28,9.28,0,0,0,1.37,5.44,4.42,4.42,0,0,0,3.8,1.92,4.35,4.35,0,0,0,3.79-1.88,9.49,9.49,0,0,0,1.33-5.48Z" transform="translate(-2.57 -2.94)" fill="#060659"/><path d="M222.63,13.15a8.61,8.61,0,0,0-1.45-.11,3.27,3.27,0,0,0-3.3,1.87V25.75h-3.56V9.9h3.4l.09,1.77a4,4,0,0,1,3.57-2.06,3.46,3.46,0,0,1,1.26.2Z" transform="translate(-2.57 -2.94)" fill="#060659"/><path d="M224.11,17.71a9.44,9.44,0,0,1,1.7-5.88,5.45,5.45,0,0,1,4.56-2.22,5.14,5.14,0,0,1,4.07,1.76V3.25H238v22.5h-3.22l-.18-1.64A5.23,5.23,0,0,1,230.34,26a5.37,5.37,0,0,1-4.5-2.24A9.73,9.73,0,0,1,224.11,17.71Zm3.56.31a6.61,6.61,0,0,0,.93,3.77,3,3,0,0,0,2.65,1.35,3.36,3.36,0,0,0,3.19-1.95V14.43a3.31,3.31,0,0,0-3.16-1.91,3.05,3.05,0,0,0-2.67,1.37A7.42,7.42,0,0,0,227.67,18Z" transform="translate(-2.57 -2.94)" fill="#060659"/><path d="M248.49,26A7.37,7.37,0,0,1,243,23.91a7.72,7.72,0,0,1-2.1-5.67V17.8a9.47,9.47,0,0,1,.91-4.24,6.9,6.9,0,0,1,2.58-2.91,6.72,6.72,0,0,1,3.69-1,6.24,6.24,0,0,1,5,2.06,8.74,8.74,0,0,1,1.76,5.85V19H244.49a4.76,4.76,0,0,0,1.31,3.11,3.94,3.94,0,0,0,2.89,1.14,4.84,4.84,0,0,0,4-2l1.92,1.83a6.44,6.44,0,0,1-2.55,2.21A8,8,0,0,1,248.49,26Zm-.43-13.58a3,3,0,0,0-2.36,1,5.24,5.24,0,0,0-1.15,2.86h6.78v-.27a4.37,4.37,0,0,0-1-2.7A3,3,0,0,0,248.06,12.46Z" transform="translate(-2.57 -2.94)" fill="#060659"/><path d="M265.93,13.15a8.61,8.61,0,0,0-1.45-.11,3.27,3.27,0,0,0-3.3,1.87V25.75h-3.56V9.9H261l.09,1.77a4,4,0,0,1,3.57-2.06,3.46,3.46,0,0,1,1.26.2Z" transform="translate(-2.57 -2.94)" fill="#060659"/><path d="M275,17.68a9.45,9.45,0,0,1,.92-4.2,6.78,6.78,0,0,1,2.6-2.87,7.27,7.27,0,0,1,3.83-1,6.94,6.94,0,0,1,5.21,2.06,8.17,8.17,0,0,1,2.16,5.48l0,.84a9.45,9.45,0,0,1-.9,4.19A6.61,6.61,0,0,1,286.24,25a7.31,7.31,0,0,1-3.88,1A6.86,6.86,0,0,1,277,23.81a8.54,8.54,0,0,1-2-6Zm3.56.31a6.43,6.43,0,0,0,1,3.83,3.53,3.53,0,0,0,5.62,0,7,7,0,0,0,1-4.11,6.31,6.31,0,0,0-1-3.81,3.47,3.47,0,0,0-5.57,0A6.87,6.87,0,0,0,278.54,18Z" transform="translate(-2.57 -2.94)" fill="#060659"/><path d="M293.44,25.75V12.54H291V9.9h2.42V8.45a5.45,5.45,0,0,1,1.46-4.07A5.62,5.62,0,0,1,299,2.94a8.1,8.1,0,0,1,2,.27L300.91,6a6.81,6.81,0,0,0-1.36-.12A2.29,2.29,0,0,0,297,8.49V9.9h3.22v2.64H297V25.75Z" transform="translate(-2.57 -2.94)" fill="#060659"/><path d="M314.34,17.84v7.91h-3.7V4.42h8.16a8.24,8.24,0,0,1,5.67,1.86,6.29,6.29,0,0,1,2.1,4.93,6,6,0,0,1-2.05,4.88,8.65,8.65,0,0,1-5.77,1.75Zm0-3h4.46a4.37,4.37,0,0,0,3-.93,3.39,3.39,0,0,0,1-2.69,3.7,3.7,0,0,0-1.05-2.76,4.05,4.05,0,0,0-2.9-1.06h-4.56Z" transform="translate(-2.57 -2.94)" fill="#060659"/><path d="M328.36,17.68a9.32,9.32,0,0,1,.93-4.2,6.75,6.75,0,0,1,2.59-2.87,7.28,7.28,0,0,1,3.84-1,6.92,6.92,0,0,1,5.2,2.06,8.08,8.08,0,0,1,2.16,5.48l0,.84a9.45,9.45,0,0,1-.9,4.19A6.61,6.61,0,0,1,339.62,25a7.3,7.3,0,0,1-3.87,1,6.86,6.86,0,0,1-5.37-2.23,8.54,8.54,0,0,1-2-6Zm3.56.31a6.43,6.43,0,0,0,1,3.83,3.3,3.3,0,0,0,2.82,1.38,3.24,3.24,0,0,0,2.8-1.41,7,7,0,0,0,1-4.11,6.31,6.31,0,0,0-1-3.81,3.47,3.47,0,0,0-5.57,0A6.87,6.87,0,0,0,331.92,18Z" transform="translate(-2.57 -2.94)" fill="#060659"/><path d="M349.64,25.75h-3.56V3.25h3.56Z" transform="translate(-2.57 -2.94)" fill="#060659"/><path d="M353.22,5.78a1.92,1.92,0,0,1,.52-1.36,2.33,2.33,0,0,1,3,0,1.85,1.85,0,0,1,.53,1.36,1.79,1.79,0,0,1-.53,1.34,2.33,2.33,0,0,1-3,0A1.86,1.86,0,0,1,353.22,5.78Zm3.78,20h-3.56V9.9H357Z" transform="translate(-2.57 -2.94)" fill="#060659"/><path d="M367.1,23.2a3.21,3.21,0,0,0,2.21-.78,2.61,2.61,0,0,0,.94-1.91h3.35a5.32,5.32,0,0,1-.92,2.76,6.13,6.13,0,0,1-2.35,2,7.06,7.06,0,0,1-3.19.74,6.73,6.73,0,0,1-5.27-2.15,8.55,8.55,0,0,1-1.95-5.95v-.36a8.4,8.4,0,0,1,1.93-5.8,6.7,6.7,0,0,1,5.28-2.17,6.49,6.49,0,0,1,4.6,1.65,5.88,5.88,0,0,1,1.87,4.32h-3.35a3.29,3.29,0,0,0-.93-2.24,3,3,0,0,0-2.22-.88,3.14,3.14,0,0,0-2.67,1.26,6.41,6.41,0,0,0-.95,3.8v.57a6.47,6.47,0,0,0,.93,3.84A3.12,3.12,0,0,0,367.1,23.2Z" transform="translate(-2.57 -2.94)" fill="#060659"/><path d="M383.17,26a7.36,7.36,0,0,1-5.48-2.13,7.73,7.73,0,0,1-2.11-5.67V17.8a9.47,9.47,0,0,1,.92-4.24,6.94,6.94,0,0,1,2.57-2.91,6.74,6.74,0,0,1,3.69-1,6.26,6.26,0,0,1,5,2.06,8.79,8.79,0,0,1,1.76,5.85V19H379.17a4.81,4.81,0,0,0,1.31,3.11,4,4,0,0,0,2.9,1.14,4.8,4.8,0,0,0,4-2l1.92,1.83a6.34,6.34,0,0,1-2.54,2.21A8,8,0,0,1,383.17,26Zm-.42-13.58a3,3,0,0,0-2.37,1,5.32,5.32,0,0,0-1.15,2.86H386v-.27a4.25,4.25,0,0,0-.95-2.7A3,3,0,0,0,382.75,12.46Z" transform="translate(-2.57 -2.94)" fill="#060659"/><path d="M411.25,20.26a2.58,2.58,0,0,0-1-2.17,11.71,11.71,0,0,0-3.56-1.54,17,17,0,0,1-4.1-1.73,5.46,5.46,0,0,1-2.92-4.77,5.2,5.2,0,0,1,2.1-4.25,8.53,8.53,0,0,1,5.46-1.67,9.18,9.18,0,0,1,4,.82A6.47,6.47,0,0,1,414,7.29a6,6,0,0,1,1,3.36h-3.7a3.37,3.37,0,0,0-1-2.62,4.33,4.33,0,0,0-3-.94,4.57,4.57,0,0,0-2.82.77,2.58,2.58,0,0,0-1,2.17,2.35,2.35,0,0,0,1.08,2,12.5,12.5,0,0,0,3.58,1.52,16.13,16.13,0,0,1,4,1.69,6.4,6.4,0,0,1,2.22,2.16,5.65,5.65,0,0,1,.7,2.87,5.09,5.09,0,0,1-2,4.24A8.88,8.88,0,0,1,407.37,26a10.41,10.41,0,0,1-4.25-.85,7.18,7.18,0,0,1-3-2.37A5.9,5.9,0,0,1,399,19.3h3.71a3.46,3.46,0,0,0,1.2,2.82,5.28,5.28,0,0,0,3.44,1,4.59,4.59,0,0,0,2.91-.78A2.51,2.51,0,0,0,411.25,20.26Z" transform="translate(-2.57 -2.94)" fill="#060659"/><path d="M427.53,24.2A5.51,5.51,0,0,1,423.08,26a4.93,4.93,0,0,1-3.91-1.51,6.42,6.42,0,0,1-1.32-4.36V9.9h3.56V20.12c0,2,.83,3,2.5,3a3.51,3.51,0,0,0,3.5-1.86V9.9H431V25.75h-3.35Z" transform="translate(-2.57 -2.94)" fill="#060659"/><path d="M442.82,13.15a8.61,8.61,0,0,0-1.45-.11,3.27,3.27,0,0,0-3.3,1.87V25.75h-3.56V9.9h3.4l.09,1.77a4,4,0,0,1,3.57-2.06,3.46,3.46,0,0,1,1.26.2Z" transform="translate(-2.57 -2.94)" fill="#060659"/><path d="M444.32,17.71a9.33,9.33,0,0,1,1.73-5.9,5.58,5.58,0,0,1,4.61-2.2,5.2,5.2,0,0,1,4.26,1.89l.16-1.6h3.21V25.27a6.36,6.36,0,0,1-1.94,4.92,7.39,7.39,0,0,1-5.23,1.8,8.49,8.49,0,0,1-3.41-.72,6.15,6.15,0,0,1-2.53-1.9l1.69-2.14a5.08,5.08,0,0,0,4,1.95,4,4,0,0,0,2.8-1,3.69,3.69,0,0,0,1-2.82V24.33a5.23,5.23,0,0,1-4.1,1.71,5.56,5.56,0,0,1-4.55-2.21A9.59,9.59,0,0,1,444.32,17.71Zm3.54.31a6.35,6.35,0,0,0,1,3.75,3.12,3.12,0,0,0,2.7,1.37,3.41,3.41,0,0,0,3.19-1.84v-7a3.37,3.37,0,0,0-3.16-1.8,3.16,3.16,0,0,0-2.73,1.39A7.17,7.17,0,0,0,447.86,18Z" transform="translate(-2.57 -2.94)" fill="#060659"/><path d="M468.74,26a7.36,7.36,0,0,1-5.48-2.13,7.72,7.72,0,0,1-2.1-5.67V17.8a9.47,9.47,0,0,1,.91-4.24,6.94,6.94,0,0,1,2.57-2.91,6.77,6.77,0,0,1,3.69-1,6.26,6.26,0,0,1,5,2.06,8.79,8.79,0,0,1,1.76,5.85V19H464.75a4.71,4.71,0,0,0,1.31,3.11A3.93,3.93,0,0,0,469,23.2a4.8,4.8,0,0,0,4-2l1.92,1.83a6.34,6.34,0,0,1-2.54,2.21A8,8,0,0,1,468.74,26Zm-.42-13.58a3,3,0,0,0-2.37,1,5.32,5.32,0,0,0-1.15,2.86h6.79v-.27a4.31,4.31,0,0,0-1-2.7A3,3,0,0,0,468.32,12.46Z" transform="translate(-2.57 -2.94)" fill="#060659"/><path d="M477.16,17.68a9.45,9.45,0,0,1,.92-4.2,6.78,6.78,0,0,1,2.6-2.87,7.27,7.27,0,0,1,3.83-1,6.94,6.94,0,0,1,5.21,2.06,8.12,8.12,0,0,1,2.16,5.48l0,.84a9.45,9.45,0,0,1-.9,4.19A6.61,6.61,0,0,1,488.42,25a7.31,7.31,0,0,1-3.88,1,6.86,6.86,0,0,1-5.36-2.23,8.54,8.54,0,0,1-2-6Zm3.56.31a6.43,6.43,0,0,0,1,3.83,3.29,3.29,0,0,0,2.81,1.38,3.25,3.25,0,0,0,2.81-1.41,7,7,0,0,0,1-4.11,6.31,6.31,0,0,0-1-3.81,3.47,3.47,0,0,0-5.57,0A6.87,6.87,0,0,0,480.72,18Z" transform="translate(-2.57 -2.94)" fill="#060659"/><path d="M498.11,9.9l.11,1.83a5.71,5.71,0,0,1,4.61-2.12q4.95,0,5,5.67V25.75h-3.56V15.48a3.28,3.28,0,0,0-.65-2.23,2.73,2.73,0,0,0-2.13-.73,3.42,3.42,0,0,0-3.21,2V25.75h-3.56V9.9Z" transform="translate(-2.57 -2.94)" fill="#060659"/><path d="M520.12,21.44a1.63,1.63,0,0,0-.78-1.45,8.53,8.53,0,0,0-2.6-.88,13.21,13.21,0,0,1-3-1A4.05,4.05,0,0,1,511,14.41,4.23,4.23,0,0,1,512.77,11a6.87,6.87,0,0,1,4.39-1.37,7.17,7.17,0,0,1,4.6,1.4,4.5,4.5,0,0,1,1.75,3.65H520a2.22,2.22,0,0,0-.77-1.71,2.92,2.92,0,0,0-2-.68,3.09,3.09,0,0,0-1.91.55,1.71,1.71,0,0,0-.74,1.45,1.44,1.44,0,0,0,.69,1.27,9.65,9.65,0,0,0,2.78.92,13,13,0,0,1,3.29,1.09A4.66,4.66,0,0,1,523,19.08a3.89,3.89,0,0,1,.58,2.17,4.14,4.14,0,0,1-1.77,3.47A7.58,7.58,0,0,1,517.21,26a8.15,8.15,0,0,1-3.47-.7,5.74,5.74,0,0,1-2.38-1.93,4.64,4.64,0,0,1-.85-2.66H514a2.56,2.56,0,0,0,.95,1.95,3.73,3.73,0,0,0,2.33.68,3.58,3.58,0,0,0,2.14-.54A1.64,1.64,0,0,0,520.12,21.44Z" transform="translate(-2.57 -2.94)" fill="#060659"/><path d="M12.54,55.75a5.87,5.87,0,0,1-.41-1.48A5.54,5.54,0,0,1,8,56a5.56,5.56,0,0,1-3.89-1.36,4.35,4.35,0,0,1-1.51-3.37,4.52,4.52,0,0,1,1.88-3.89,9.16,9.16,0,0,1,5.38-1.35H12V45a2.77,2.77,0,0,0-.69-2,2.71,2.71,0,0,0-2.1-.74,3.11,3.11,0,0,0-2,.61,1.87,1.87,0,0,0-.78,1.54H2.91A3.93,3.93,0,0,1,3.77,42a5.76,5.76,0,0,1,2.35-1.78,8.26,8.26,0,0,1,3.32-.64A6.64,6.64,0,0,1,13.88,41a5,5,0,0,1,1.7,3.93v7.15a8.11,8.11,0,0,0,.6,3.41v.25ZM8.63,53.19a4,4,0,0,0,2-.52A3.49,3.49,0,0,0,12,51.3v-3H10.1a5.27,5.27,0,0,0-3,.69,2.24,2.24,0,0,0-1,2,2.06,2.06,0,0,0,.68,1.63A2.65,2.65,0,0,0,8.63,53.19Z" transform="translate(-2.57 -2.94)" fill="#060659"/><path d="M22.45,39.9l.11,1.83a5.71,5.71,0,0,1,4.61-2.12q4.95,0,5,5.67V55.75H28.65V45.48A3.28,3.28,0,0,0,28,43.25a2.73,2.73,0,0,0-2.13-.73,3.42,3.42,0,0,0-3.21,1.95V55.75H19.1V39.9Z" transform="translate(-2.57 -2.94)" fill="#060659"/><path d="M35,47.71a9.44,9.44,0,0,1,1.7-5.88,5.45,5.45,0,0,1,4.56-2.22,5.14,5.14,0,0,1,4.07,1.76V33.25h3.56v22.5H45.71l-.18-1.64A5.23,5.23,0,0,1,41.27,56a5.41,5.41,0,0,1-4.51-2.24A9.79,9.79,0,0,1,35,47.71ZM38.6,48a6.61,6.61,0,0,0,.93,3.77,3,3,0,0,0,2.65,1.35,3.36,3.36,0,0,0,3.19-2V44.43a3.31,3.31,0,0,0-3.16-1.91,3.05,3.05,0,0,0-2.67,1.37A7.42,7.42,0,0,0,38.6,48Z" transform="translate(-2.57 -2.94)" fill="#060659"/><path d="M72.4,50.78H64.13l-1.72,5H58.55l8.06-21.33h3.33L78,55.75H74.14Zm-7.22-3h6.18L68.27,39Z" transform="translate(-2.57 -2.94)" fill="#060659"/><path d="M88.78,51.44A1.63,1.63,0,0,0,88,50a8.64,8.64,0,0,0-2.6-.88,13.21,13.21,0,0,1-3-1,4.05,4.05,0,0,1-2.67-3.74A4.23,4.23,0,0,1,81.43,41a6.85,6.85,0,0,1,4.39-1.37,7.17,7.17,0,0,1,4.6,1.4,4.5,4.5,0,0,1,1.75,3.65H88.61A2.22,2.22,0,0,0,87.84,43a2.92,2.92,0,0,0-2-.68,3.09,3.09,0,0,0-1.91.55,1.71,1.71,0,0,0-.74,1.45,1.44,1.44,0,0,0,.69,1.27,9.65,9.65,0,0,0,2.78.92,13.11,13.11,0,0,1,3.29,1.09,4.66,4.66,0,0,1,1.77,1.53,3.89,3.89,0,0,1,.58,2.17,4.14,4.14,0,0,1-1.77,3.47A7.58,7.58,0,0,1,85.87,56a8.23,8.23,0,0,1-3.48-.7A5.77,5.77,0,0,1,80,53.41a4.64,4.64,0,0,1-.85-2.66h3.46a2.56,2.56,0,0,0,1,2,3.73,3.73,0,0,0,2.33.68,3.58,3.58,0,0,0,2.14-.54A1.64,1.64,0,0,0,88.78,51.44Z" transform="translate(-2.57 -2.94)" fill="#060659"/><path d="M104.08,51.44A1.63,1.63,0,0,0,103.3,50a8.53,8.53,0,0,0-2.6-.88,13.21,13.21,0,0,1-3-1A4.05,4.05,0,0,1,95,44.41,4.23,4.23,0,0,1,96.73,41a6.87,6.87,0,0,1,4.39-1.37,7.17,7.17,0,0,1,4.6,1.4,4.5,4.5,0,0,1,1.75,3.65h-3.56a2.22,2.22,0,0,0-.77-1.71,2.92,2.92,0,0,0-2-.68,3.09,3.09,0,0,0-1.91.55,1.71,1.71,0,0,0-.74,1.45,1.44,1.44,0,0,0,.69,1.27,9.65,9.65,0,0,0,2.78.92,13,13,0,0,1,3.29,1.09A4.66,4.66,0,0,1,107,49.08a3.89,3.89,0,0,1,.58,2.17,4.14,4.14,0,0,1-1.77,3.47A7.58,7.58,0,0,1,101.17,56a8.15,8.15,0,0,1-3.47-.7,5.74,5.74,0,0,1-2.38-1.93,4.64,4.64,0,0,1-.85-2.66h3.46a2.56,2.56,0,0,0,.95,2,3.73,3.73,0,0,0,2.33.68,3.58,3.58,0,0,0,2.14-.54A1.64,1.64,0,0,0,104.08,51.44Z" transform="translate(-2.57 -2.94)" fill="#060659"/><path d="M109.73,47.68a9.45,9.45,0,0,1,.92-4.2,6.78,6.78,0,0,1,2.6-2.87,7.27,7.27,0,0,1,3.83-1,6.94,6.94,0,0,1,5.21,2.06,8.17,8.17,0,0,1,2.16,5.48l0,.84a9.31,9.31,0,0,1-.91,4.19A6.65,6.65,0,0,1,121,55a7.31,7.31,0,0,1-3.88,1,6.89,6.89,0,0,1-5.37-2.23,8.58,8.58,0,0,1-2-6Zm3.56.31a6.43,6.43,0,0,0,1,3.83,3.53,3.53,0,0,0,5.62,0,7,7,0,0,0,1-4.11,6.31,6.31,0,0,0-1-3.81,3.48,3.48,0,0,0-5.58,0A6.94,6.94,0,0,0,113.29,48Z" transform="translate(-2.57 -2.94)" fill="#060659"/><path d="M127.15,35.78a1.88,1.88,0,0,1,.52-1.36,2,2,0,0,1,1.48-.54,2,2,0,0,1,1.5.54,1.89,1.89,0,0,1,.53,1.36,1.82,1.82,0,0,1-.53,1.34,2,2,0,0,1-1.5.54,2,2,0,0,1-1.48-.54A1.82,1.82,0,0,1,127.15,35.78Zm3.78,20h-3.56V39.9h3.56Z" transform="translate(-2.57 -2.94)" fill="#060659"/><path d="M141,53.2a3.19,3.19,0,0,0,2.21-.78,2.61,2.61,0,0,0,.94-1.91h3.36a5.24,5.24,0,0,1-.93,2.76,6,6,0,0,1-2.34,2,7.09,7.09,0,0,1-3.19.74,6.75,6.75,0,0,1-5.28-2.15,8.55,8.55,0,0,1-1.95-6v-.36a8.4,8.4,0,0,1,1.94-5.8,6.68,6.68,0,0,1,5.27-2.17,6.51,6.51,0,0,1,4.61,1.65,5.91,5.91,0,0,1,1.87,4.32h-3.36a3.29,3.29,0,0,0-.93-2.24,3,3,0,0,0-2.22-.88,3.11,3.11,0,0,0-2.66,1.26,6.34,6.34,0,0,0-1,3.8v.57a6.47,6.47,0,0,0,.93,3.84A3.12,3.12,0,0,0,141,53.2Z" transform="translate(-2.57 -2.94)" fill="#060659"/><path d="M159.6,55.75a5.87,5.87,0,0,1-.41-1.48,6,6,0,0,1-8.05.41,4.35,4.35,0,0,1-1.51-3.37,4.5,4.5,0,0,1,1.88-3.89,9.13,9.13,0,0,1,5.38-1.35h2.19V45a2.77,2.77,0,0,0-.69-2,2.71,2.71,0,0,0-2.1-.74,3.11,3.11,0,0,0-2,.61,1.87,1.87,0,0,0-.78,1.54H150a3.94,3.94,0,0,1,.87-2.44,5.7,5.7,0,0,1,2.35-1.78,8.26,8.26,0,0,1,3.32-.64,6.64,6.64,0,0,1,4.44,1.4,5,5,0,0,1,1.69,3.93v7.15a7.94,7.94,0,0,0,.61,3.41v.25Zm-3.91-2.56a4,4,0,0,0,2-.52,3.49,3.49,0,0,0,1.4-1.37v-3h-1.92a5.27,5.27,0,0,0-3,.69,2.24,2.24,0,0,0-1,2,2.06,2.06,0,0,0,.68,1.63A2.65,2.65,0,0,0,155.69,53.19Z" transform="translate(-2.57 -2.94)" fill="#060659"/><path d="M170.62,36.05V39.9h2.8v2.64h-2.8v8.84A2,2,0,0,0,171,52.7a1.71,1.71,0,0,0,1.29.4,5.32,5.32,0,0,0,1.24-.15v2.76a8.92,8.92,0,0,1-2.34.33c-2.74,0-4.1-1.51-4.1-4.52v-9h-2.61V39.9h2.61V36.05Z" transform="translate(-2.57 -2.94)" fill="#060659"/><path d="M182.61,56a7.37,7.37,0,0,1-5.49-2.13,7.72,7.72,0,0,1-2.1-5.67V47.8a9.54,9.54,0,0,1,.91-4.25,6.93,6.93,0,0,1,2.58-2.9,6.72,6.72,0,0,1,3.69-1,6.24,6.24,0,0,1,5,2.06A8.74,8.74,0,0,1,189,47.52V49H178.61a4.76,4.76,0,0,0,1.31,3.11,3.94,3.94,0,0,0,2.89,1.14,4.84,4.84,0,0,0,4-2l1.92,1.83a6.44,6.44,0,0,1-2.55,2.21A8,8,0,0,1,182.61,56Zm-.43-13.58a3,3,0,0,0-2.36,1,5.24,5.24,0,0,0-1.15,2.86h6.78v-.27a4.37,4.37,0,0,0-.95-2.7A3,3,0,0,0,182.18,42.46Z" transform="translate(-2.57 -2.94)" fill="#060659"/><path d="M200.38,51.44A1.63,1.63,0,0,0,199.6,50a8.53,8.53,0,0,0-2.6-.88,13.21,13.21,0,0,1-3-1,4.05,4.05,0,0,1-2.67-3.74A4.23,4.23,0,0,1,193,41a6.88,6.88,0,0,1,4.4-1.37A7.16,7.16,0,0,1,202,41a4.5,4.5,0,0,1,1.75,3.65h-3.56a2.21,2.21,0,0,0-.76-1.71,2.94,2.94,0,0,0-2-.68,3.12,3.12,0,0,0-1.92.55,1.71,1.71,0,0,0-.74,1.45,1.44,1.44,0,0,0,.69,1.27,9.63,9.63,0,0,0,2.79.92,13,13,0,0,1,3.28,1.09,4.78,4.78,0,0,1,1.78,1.53,4,4,0,0,1,.58,2.17,4.15,4.15,0,0,1-1.78,3.47A7.58,7.58,0,0,1,197.47,56a8.15,8.15,0,0,1-3.47-.7,5.74,5.74,0,0,1-2.38-1.93,4.63,4.63,0,0,1-.84-2.66h3.45a2.56,2.56,0,0,0,1,2,3.75,3.75,0,0,0,2.33.68,3.58,3.58,0,0,0,2.14-.54A1.64,1.64,0,0,0,200.38,51.44Z" transform="translate(-2.57 -2.94)" fill="#060659"/><path d="M218.5,52.79h9.69v3H214.8V34.42h3.7Z" transform="translate(-2.57 -2.94)" fill="#060659"/><path d="M229.74,47.68a9.32,9.32,0,0,1,.92-4.2,6.75,6.75,0,0,1,2.59-2.87,7.31,7.31,0,0,1,3.84-1,7,7,0,0,1,5.21,2.06,8.17,8.17,0,0,1,2.16,5.48V48a9.45,9.45,0,0,1-.9,4.19A6.61,6.61,0,0,1,241,55a7.28,7.28,0,0,1-3.87,1,6.86,6.86,0,0,1-5.37-2.23,8.58,8.58,0,0,1-2-6Zm3.56.31a6.36,6.36,0,0,0,1,3.83,3.28,3.28,0,0,0,2.81,1.38,3.24,3.24,0,0,0,2.8-1.41,7,7,0,0,0,1-4.11,6.38,6.38,0,0,0-1-3.81,3.48,3.48,0,0,0-5.58,0A6.94,6.94,0,0,0,233.3,48Z" transform="translate(-2.57 -2.94)" fill="#060659"/><path d="M246.71,47.71a9.44,9.44,0,0,1,1.7-5.88A5.44,5.44,0,0,1,253,39.61,5.15,5.15,0,0,1,257,41.37V33.25h3.56v22.5h-3.22l-.18-1.64A5.24,5.24,0,0,1,252.94,56a5.41,5.41,0,0,1-4.51-2.24A9.79,9.79,0,0,1,246.71,47.71Zm3.56.31a6.61,6.61,0,0,0,.93,3.77,3,3,0,0,0,2.65,1.35,3.36,3.36,0,0,0,3.19-2V44.43a3.32,3.32,0,0,0-3.16-1.91,3,3,0,0,0-2.67,1.37A7.33,7.33,0,0,0,250.27,48Z" transform="translate(-2.57 -2.94)" fill="#060659"/><path d="M263.58,47.71a9.27,9.27,0,0,1,1.73-5.9,5.57,5.57,0,0,1,4.61-2.2,5.22,5.22,0,0,1,4.26,1.89l.16-1.6h3.21V55.27a6.39,6.39,0,0,1-1.94,4.92,7.41,7.41,0,0,1-5.24,1.8,8.44,8.44,0,0,1-3.4-.72,6.15,6.15,0,0,1-2.53-1.9l1.68-2.14a5.11,5.11,0,0,0,4.05,2,3.91,3.91,0,0,0,2.79-1,3.66,3.66,0,0,0,1-2.82V54.33a5.25,5.25,0,0,1-4.1,1.71,5.54,5.54,0,0,1-4.55-2.21A9.53,9.53,0,0,1,263.58,47.71Zm3.54.31a6.35,6.35,0,0,0,1,3.75,3.12,3.12,0,0,0,2.71,1.37A3.42,3.42,0,0,0,274,51.3v-7a3.37,3.37,0,0,0-3.16-1.8,3.17,3.17,0,0,0-2.74,1.39A7.17,7.17,0,0,0,267.12,48Z" transform="translate(-2.57 -2.94)" fill="#060659"/><path d="M288,56a7.36,7.36,0,0,1-5.48-2.13,7.69,7.69,0,0,1-2.11-5.67V47.8a9.55,9.55,0,0,1,.92-4.25,7,7,0,0,1,2.57-2.9,6.72,6.72,0,0,1,3.69-1,6.22,6.22,0,0,1,5,2.06,8.74,8.74,0,0,1,1.77,5.85V49H284a4.81,4.81,0,0,0,1.31,3.11,4,4,0,0,0,2.9,1.14,4.8,4.8,0,0,0,4-2l1.92,1.83a6.34,6.34,0,0,1-2.54,2.21A8,8,0,0,1,288,56Zm-.42-13.58a3,3,0,0,0-2.37,1,5.32,5.32,0,0,0-1.15,2.86h6.78v-.27a4.25,4.25,0,0,0-.95-2.7A3,3,0,0,0,287.58,42.46Z" transform="translate(-2.57 -2.94)" fill="#060659"/><path d="M316.08,50.26a2.58,2.58,0,0,0-1-2.17,11.71,11.71,0,0,0-3.56-1.54,17,17,0,0,1-4.1-1.73,5.46,5.46,0,0,1-2.92-4.77,5.2,5.2,0,0,1,2.1-4.25,8.53,8.53,0,0,1,5.46-1.67,9.18,9.18,0,0,1,4,.82,6.53,6.53,0,0,1,2.74,2.34,6,6,0,0,1,1,3.36h-3.69A3.37,3.37,0,0,0,315,38a4.33,4.33,0,0,0-3-.94,4.57,4.57,0,0,0-2.82.77,2.58,2.58,0,0,0-1,2.17,2.35,2.35,0,0,0,1.08,2,12.37,12.37,0,0,0,3.58,1.52,16.13,16.13,0,0,1,4,1.69,6.4,6.4,0,0,1,2.22,2.16,5.75,5.75,0,0,1,.7,2.87,5.09,5.09,0,0,1-2,4.24A8.88,8.88,0,0,1,312.2,56a10.41,10.41,0,0,1-4.25-.85,7.1,7.1,0,0,1-3-2.37,5.9,5.9,0,0,1-1.08-3.52h3.71a3.46,3.46,0,0,0,1.2,2.82,5.28,5.28,0,0,0,3.44,1,4.59,4.59,0,0,0,2.91-.78A2.51,2.51,0,0,0,316.08,50.26Z" transform="translate(-2.57 -2.94)" fill="#060659"/><path d="M334.9,50.78h-8.26l-1.73,5h-3.85l8.05-21.33h3.33l8.07,21.33h-3.87Zm-7.22-3h6.18L330.77,39Z" transform="translate(-2.57 -2.94)" fill="#060659"/><path d="M355.67,46.77q0,4.6-1.73,6.94A6.08,6.08,0,0,1,348.71,56a6.18,6.18,0,0,1-5.21-2.27q-1.75-2.28-1.79-6.75V43.33q0-4.61,1.72-6.9a7.17,7.17,0,0,1,10.47-.06q1.73,2.24,1.77,6.71Zm-3.56-4a9.14,9.14,0,0,0-.82-4.41,3.15,3.15,0,0,0-5.18-.07,8.41,8.41,0,0,0-.86,4.14v4.83a9.36,9.36,0,0,0,.83,4.46,2.83,2.83,0,0,0,2.63,1.46,2.76,2.76,0,0,0,2.53-1.35,8.7,8.7,0,0,0,.87-4.24Z" transform="translate(-2.57 -2.94)" fill="#060659"/><path d="M362.8,43.46H365a3.85,3.85,0,0,0,2.6-.85,3,3,0,0,0,1-2.42,3.26,3.26,0,0,0-.8-2.36,3.21,3.21,0,0,0-2.44-.84,3.38,3.38,0,0,0-2.35.82A2.75,2.75,0,0,0,362,40h-3.56a5.29,5.29,0,0,1,.88-3,5.9,5.9,0,0,1,2.43-2.11,7.94,7.94,0,0,1,3.49-.75,7.34,7.34,0,0,1,5,1.6,5.65,5.65,0,0,1,1.82,4.46,4.55,4.55,0,0,1-.91,2.71,5.77,5.77,0,0,1-2.37,1.91,5.22,5.22,0,0,1,2.67,1.89,5.16,5.16,0,0,1,.92,3.07,5.73,5.73,0,0,1-2,4.57,8.65,8.65,0,0,1-10.22.06,5.39,5.39,0,0,1-2-4.36h3.56a3,3,0,0,0,.94,2.28,3.57,3.57,0,0,0,2.54.88,3.67,3.67,0,0,0,2.61-.88,3.26,3.26,0,0,0,1-2.55,3.35,3.35,0,0,0-1-2.59,4.3,4.3,0,0,0-3-.91h-2.1Z" transform="translate(-2.57 -2.94)" fill="#060659"/></svg>